<svg width="155" height="123" viewBox="0 0 155 123" fill="none" xmlns="http://www.w3.org/2000/svg">
<path d="M17.1166 89.04C20.5299 89.04 23.2232 89.92 25.1966 91.68C27.1699 93.4133 28.3966 95.56 28.8766 98.12L24.2766 99.52C23.9299 97.8133 23.1166 96.4 21.8366 95.28C20.5832 94.1333 18.8899 93.56 16.7566 93.56C13.8232 93.56 11.4099 94.7067 9.51656 97C7.6499 99.2933 6.71656 102.147 6.71656 105.56C6.71656 108.147 7.4099 110.213 8.79656 111.76C10.2099 113.307 12.1166 114.08 14.5166 114.08C18.2766 114.08 21.0232 112.147 22.7566 108.28L26.9966 110C25.9299 112.533 24.3032 114.6 22.1166 116.2C19.9299 117.8 17.2499 118.6 14.0766 118.6C10.4766 118.6 7.5299 117.413 5.23656 115.04C2.94323 112.64 1.79656 109.573 1.79656 105.84C1.79656 103.227 2.23656 100.84 3.11656 98.68C3.99656 96.4933 5.15656 94.72 6.59656 93.36C8.06323 91.9733 9.70323 90.9067 11.5166 90.16C13.3299 89.4133 15.1966 89.04 17.1166 89.04ZM46.1494 118H41.5494L44.0294 106.48C44.136 105.893 44.1894 105.48 44.1894 105.24C44.1894 104.253 43.896 103.48 43.3094 102.92C42.7494 102.36 41.9494 102.08 40.9094 102.08C39.6827 102.08 38.6694 102.52 37.8694 103.4C37.0694 104.28 36.5227 105.373 36.2294 106.68L33.7894 118H29.1894L35.3094 89.04H39.9494L37.5894 100.12C38.8427 98.68 40.616 97.96 42.9094 97.96C44.776 97.96 46.2427 98.5067 47.3094 99.6C48.4027 100.667 48.9494 102.107 48.9494 103.92C48.9494 104.747 48.8827 105.427 48.7494 105.96L46.1494 118ZM62.6028 102.08C60.8428 102.08 59.4428 102.853 58.4028 104.4C57.3628 105.947 56.8428 107.693 56.8428 109.64C56.8428 111.08 57.2028 112.24 57.9228 113.12C58.6695 113.973 59.6961 114.4 61.0028 114.4C62.6028 114.4 63.9495 113.667 65.0428 112.2C66.1361 110.733 66.6828 108.867 66.6828 106.6C66.6828 105.24 66.3228 104.147 65.6028 103.32C64.9095 102.493 63.9095 102.08 62.6028 102.08ZM68.6028 98.52H73.1228L69.9628 113.36C69.6961 114.693 69.5628 115.92 69.5628 117.04C69.5628 117.387 69.5761 117.707 69.6028 118H65.2828C65.2561 117.76 65.2428 117.493 65.2428 117.2C65.2428 116.72 65.2695 116.187 65.3228 115.6C63.8828 117.44 62.0961 118.36 59.9628 118.36C57.5361 118.36 55.6295 117.56 54.2428 115.96C52.8828 114.333 52.2028 112.267 52.2028 109.76C52.2028 106.48 53.1495 103.707 55.0428 101.44C56.9628 99.1467 59.3628 98 62.2428 98C63.8161 98 65.0828 98.28 66.0428 98.84C67.0028 99.4 67.6828 100.067 68.0828 100.84L68.6028 98.52ZM76.8581 113.6C76.8581 112.96 76.9648 112.173 77.1781 111.24L79.0181 102.64H75.4981L76.3781 98.52H77.0981C79.2048 98.52 80.4981 97.4667 80.9781 95.36L81.5781 92.56H85.7781L84.4581 98.52H88.3381L87.4581 102.64H83.6181L81.6981 111.72C81.6181 112.04 81.5781 112.333 81.5781 112.6C81.5781 113.693 82.2848 114.24 83.6981 114.24C84.1248 114.24 84.5781 114.2 85.0581 114.12L84.2981 117.84C83.6848 118.107 82.9115 118.24 81.9781 118.24C80.4048 118.24 79.1515 117.827 78.2181 117C77.3115 116.173 76.8581 115.04 76.8581 113.6ZM93.035 118H88.555L94.635 89.04H99.195L96.875 100.12C98.1283 98.7333 99.9683 98.04 102.395 98.04C104.822 98.04 106.688 98.8267 107.995 100.4C109.302 101.947 109.955 103.933 109.955 106.36C109.955 109.853 108.982 112.76 107.035 115.08C105.115 117.373 102.662 118.52 99.675 118.52C98.2617 118.52 97.0083 118.2 95.915 117.56C94.8483 116.893 94.1017 116.067 93.675 115.08L93.035 118ZM100.755 102.08C99.1283 102.08 97.755 102.773 96.635 104.16C95.515 105.547 94.955 107.32 94.955 109.48C94.955 110.947 95.355 112.133 96.155 113.04C96.955 113.947 98.0083 114.4 99.315 114.4C100.862 114.4 102.235 113.733 103.435 112.4C104.662 111.04 105.275 109.227 105.275 106.96C105.275 105.387 104.875 104.187 104.075 103.36C103.275 102.507 102.168 102.08 100.755 102.08ZM122.917 102.08C121.317 102.08 119.944 102.76 118.797 104.12C117.651 105.48 117.077 107.24 117.077 109.4C117.077 110.92 117.477 112.147 118.277 113.08C119.104 113.987 120.184 114.44 121.517 114.44C123.064 114.44 124.424 113.787 125.597 112.48C126.771 111.173 127.357 109.373 127.357 107.08C127.357 105.533 126.957 104.32 126.157 103.44C125.384 102.56 124.304 102.107 122.917 102.08ZM132.037 106.92C132.037 110.173 131.011 112.933 128.957 115.2C126.931 117.467 124.371 118.6 121.277 118.6C118.611 118.6 116.464 117.733 114.837 116C113.237 114.267 112.437 112.12 112.437 109.56C112.437 106.2 113.477 103.427 115.557 101.24C117.637 99.0267 120.197 97.92 123.237 97.92C125.957 97.92 128.104 98.7733 129.677 100.48C131.251 102.187 132.037 104.333 132.037 106.92ZM141.89 111.56L136.17 118H130.45L139.81 108.04L134.73 98.52H139.77C141.663 102.333 142.703 104.4 142.89 104.72L148.37 98.52H154.13C154.023 98.6267 152.663 100.067 150.05 102.84C147.463 105.587 145.77 107.387 144.97 108.24C147.237 112.533 148.983 115.787 150.21 118H145.17L141.89 111.56Z" fill="#001815"/>
<path d="M72.5324 71C64.6659 71 58.4852 68.6445 53.9901 63.9336C49.6074 59.1106 47.416 52.4368 47.416 43.9123C47.416 35.5 49.2141 27.985 52.8101 21.3673C56.4062 14.7496 61.3508 9.53396 67.6439 5.72037C73.9371 1.90679 81.073 0 89.0518 0C94.4459 0 98.7163 0.897318 101.863 2.69195C105.009 4.48658 106.583 6.95419 106.583 10.0948C106.583 12.8989 105.234 15.6469 102.537 18.3389C101.526 19.3483 100.177 20.3017 98.4915 21.199C96.9182 21.9842 95.6821 22.3768 94.7831 22.3768C93.7717 22.3768 92.9288 21.9842 92.2546 21.199C91.1308 19.9652 89.6699 18.7875 87.8719 17.6659C86.0738 16.5442 83.5453 15.9834 80.2864 15.9834C74.7799 15.9834 70.2848 17.8902 66.8011 21.7038C63.3174 25.4052 61.5756 30.2844 61.5756 36.3412C61.5756 41.8373 63.1488 46.2678 66.2954 49.6327C69.442 52.9976 73.5999 54.6801 78.7693 54.6801C81.4664 54.6801 84.3882 54.2314 87.5347 53.3341C90.7937 52.3246 93.6593 50.9226 96.1316 49.128C97.3677 48.0063 98.6601 47.4455 100.009 47.4455C102.256 47.4455 103.38 48.8476 103.38 51.6517C103.38 55.3531 101.526 58.8862 97.8172 62.2512C95.0078 64.831 91.2432 66.9621 86.5233 68.6445C81.9159 70.2148 77.2522 71 72.5324 71Z" fill="#001815"/>
<path d="M72.6604 69.3095C65.0188 69.3095 59.0146 67.0101 54.648 62.4114C50.3905 57.7032 48.2617 51.1883 48.2617 42.8668C48.2617 34.6548 50.0084 27.3187 53.5017 20.8586C56.995 14.3984 61.7984 9.30696 67.9117 5.58418C74.025 1.86139 80.9571 0 88.7079 0C93.9479 0 98.0962 0.875953 101.153 2.62785C104.21 4.37975 105.738 6.78861 105.738 9.85443C105.738 12.5918 104.428 15.2744 101.808 17.9022C100.825 18.8877 99.5154 19.8184 97.8779 20.6943C96.3496 21.4608 95.1488 21.844 94.2754 21.844C93.2929 21.844 92.4742 21.4608 91.8192 20.6943C90.7275 19.4899 89.3083 18.3402 87.5617 17.2453C85.815 16.1503 83.3588 15.6029 80.1929 15.6029C74.8438 15.6029 70.4771 17.4642 67.0929 21.187C63.7088 24.8003 62.0167 29.5633 62.0167 35.476C62.0167 40.8412 63.545 45.1662 66.6017 48.451C69.6584 51.7358 73.6975 53.3782 78.7192 53.3782C81.3392 53.3782 84.1775 52.9402 87.2342 52.0643C90.4 51.0788 93.1838 49.7102 95.5854 47.9583C96.7863 46.8633 98.0417 46.3158 99.3517 46.3158C101.535 46.3158 102.627 47.6845 102.627 50.4219C102.627 54.0352 100.825 57.4842 97.2229 60.769C94.4938 63.2874 90.8367 65.3678 86.2517 67.0102C81.7758 68.5431 77.2454 69.3095 72.6604 69.3095Z" fill="#24786D"/>
</svg>
